<svg xmlns="http://www.w3.org/2000/svg" xmlns:xlink="http://www.w3.org/1999/xlink" width="125" height="125" viewBox="0 0 125 125">
  <defs>
    <style>
      .cls-1 {
        fill: #333;
        fill-rule: evenodd;
        filter: url(#filter);
      }
    </style>
    <filter id="filter" x="0.5" y="-0.5" width="124" height="124" filterUnits="userSpaceOnUse">
      <feFlood result="flood" flood-color="#fff"/>
      <feComposite result="composite" operator="in" in2="SourceGraphic"/>
      <feBlend result="blend" in2="SourceGraphic"/>
    </filter>
  </defs>
  <path id="_1" data-name="1" class="cls-1" d="M61.834,93.5a32,32,0,1,0-32-32A32.037,32.037,0,0,0,61.834,93.5Zm0-60a28,28,0,1,1-28,28A28.031,28.031,0,0,1,61.834,33.5ZM60.5,19.5a2,2,0,0,0,2-2V1.5a2,2,0,1,0-4,0v16A2,2,0,0,0,60.5,19.5Zm2,102v-16a2,2,0,0,0-4,0v16A2,2,0,0,0,62.5,121.5Zm-42-58a2,2,0,0,0-2-2H2.5a2,2,0,0,0,0,4h16A2,2,0,0,0,20.5,63.5Zm102-2h-16a2,2,0,0,0,0,4h16A2,2,0,0,0,122.5,61.5ZM21.488,105.34L32.8,94.027A2,2,0,0,0,29.973,91.2L18.66,102.511A2,2,0,0,0,21.488,105.34ZM93.613,32.386a1.992,1.992,0,0,0,1.414-.586L106.34,20.488a2,2,0,0,0-2.829-2.828L92.2,28.972A2,2,0,0,0,93.613,32.386ZM95.027,91.2A2,2,0,0,0,92.2,94.027l11.312,11.313a2,2,0,0,0,2.829-2.829ZM29.973,31.8A2,2,0,1,0,32.8,28.972L21.488,17.66a2,2,0,1,0-2.828,2.828Z"/>
</svg>
