<svg xmlns="http://www.w3.org/2000/svg" xmlns:xlink="http://www.w3.org/1999/xlink" width="125" height="125" viewBox="0 0 125 125">
  <defs>
    <style>
      .cls-1 {
        fill: #333;
        fill-rule: evenodd;
        filter: url(#filter);
      }
    </style>
    <filter id="filter" x="4.344" y="11.5" width="115.937" height="95.844" filterUnits="userSpaceOnUse">
      <feFlood result="flood" flood-color="#fff"/>
      <feComposite result="composite" operator="in" in2="SourceGraphic"/>
      <feBlend result="blend" in2="SourceGraphic"/>
    </filter>
  </defs>
  <path id="_3" data-name="3" class="cls-1" d="M75.919,23.75a2.027,2.027,0,0,0,2.016-2.039V13.554a2.016,2.016,0,1,0-4.032,0v8.157A2.026,2.026,0,0,0,75.919,23.75ZM118.26,54.338H110.2a2.039,2.039,0,0,0,0,4.078h8.065A2.039,2.039,0,0,0,118.26,54.338Zm-43.349,53.02c12.023,0,22.179-10.545,22.179-23.027a23.2,23.2,0,0,0-4.868-14.048,23.557,23.557,0,1,0-37.7-25.271A22.129,22.129,0,0,0,33.235,62.387a21.458,21.458,0,0,0-6.714-1.081C14.5,61.306,4.342,71.851,4.342,84.331S14.5,107.358,26.521,107.358h48.39ZM76.7,32.921A19.656,19.656,0,0,1,89.5,67.282,21.626,21.626,0,0,0,76.094,61.34,22.338,22.338,0,0,0,58.7,45.376,19.509,19.509,0,0,1,76.7,32.921ZM8.374,84.331c0-10.27,8.309-18.947,18.146-18.947a17.789,17.789,0,0,1,7.455,1.663,2,2,0,0,0,1.831-.086,2.04,2.04,0,0,0,1.006-1.549,18.057,18.057,0,0,1,35.72-1.625,2.021,2.021,0,0,0,1.977,1.638,1.975,1.975,0,0,0,.4-0.04c9.837,0,18.146,8.677,18.146,18.947s-8.309,18.948-18.146,18.948H26.521C16.683,103.279,8.374,94.6,8.374,84.331ZM51.265,33a2,2,0,0,0,2.851,0,2.055,2.055,0,0,0,0-2.883l-5.7-5.767a2,2,0,0,0-2.851,0,2.055,2.055,0,0,0,0,2.883Zm49.9,0.6a2,2,0,0,0,1.425-.6l5.7-5.767a2.054,2.054,0,0,0,0-2.883,2,2,0,0,0-2.851,0l-5.7,5.767a2.055,2.055,0,0,0,0,2.883A2,2,0,0,0,101.164,33.6Zm0.895,42.619,5.7,5.769a2,2,0,0,0,2.851,0,2.056,2.056,0,0,0,0-2.883l-5.7-5.769a2,2,0,0,0-2.852,0A2.056,2.056,0,0,0,102.059,76.214Z"/>
</svg>
