<svg xmlns="http://www.w3.org/2000/svg" xmlns:xlink="http://www.w3.org/1999/xlink" width="125" height="125" viewBox="0 0 125 125">
  <defs>
    <style>
      .cls-1 {
        fill: #333;
        fill-rule: evenodd;
        filter: url(#filter);
      }
    </style>
    <filter id="filter" x="10.531" y="18.813" width="104" height="88.063" filterUnits="userSpaceOnUse">
      <feFlood result="flood" flood-color="#fff"/>
      <feComposite result="composite" operator="in" in2="SourceGraphic"/>
      <feBlend result="blend" in2="SourceGraphic"/>
    </filter>
  </defs>
  <path id="_15" data-name="15" class="cls-1" d="M32.547,91.046h48c11.926,0,22-10.2,22-22.268a21.508,21.508,0,0,0-.687-5.135A16.695,16.695,0,0,0,98.82,30.77a16.959,16.959,0,0,0-32.621.714A21.658,21.658,0,0,0,39.207,47.56a21.708,21.708,0,0,0-6.66-1.049c-11.926,0-22,10.2-22,22.268S20.621,91.046,32.547,91.046Zm50-68.289A12.992,12.992,0,0,1,95.285,33.074a2.247,2.247,0,0,0,2.262,1.56,12.786,12.786,0,0,1,3.044,25.252A22.362,22.362,0,0,0,81.719,46.543,21.835,21.835,0,0,0,69.981,32.854,12.865,12.865,0,0,1,82.547,22.758Zm-50,27.711a18,18,0,0,1,7.4,1.614A2.027,2.027,0,0,0,41.762,52a1.985,1.985,0,0,0,1-1.5,17.967,17.967,0,0,1,35.43-1.575,1.994,1.994,0,0,0,2.019,1.589,1.575,1.575,0,0,0,.34-0.041c9.758,0,18,8.385,18,18.309s-8.242,18.309-18,18.309h-48c-9.758,0-18-8.386-18-18.309S22.789,50.469,32.547,50.469Zm-2,48.495h48a1.98,1.98,0,1,0,0-3.959h-48A1.98,1.98,0,1,0,30.547,98.964Zm0,7.917h48a1.98,1.98,0,1,0,0-3.959h-48A1.98,1.98,0,1,0,30.547,106.881Z"/>
</svg>
