<svg xmlns="http://www.w3.org/2000/svg" xmlns:xlink="http://www.w3.org/1999/xlink" width="125" height="125" viewBox="0 0 125 125">
  <defs>
    <style>
      .cls-1 {
        fill: #333;
        fill-rule: evenodd;
        filter: url(#filter);
      }
    </style>
    <filter id="filter" x="14.844" y="16" width="95.875" height="92" filterUnits="userSpaceOnUse">
      <feFlood result="flood" flood-color="#fff"/>
      <feComposite result="composite" operator="in" in2="SourceGraphic"/>
      <feBlend result="blend" in2="SourceGraphic"/>
    </filter>
  </defs>
  <path id="_19" data-name="19" class="cls-1" d="M110.723,55.015c0-12.057-9.315-22.3-20.591-22.967A21.626,21.626,0,0,0,48.1,33.076a21.041,21.041,0,0,0-6.584-1.06c-11.79,0-21.75,10.533-21.75,23s9.96,23,21.75,23H88.973C100.763,78.015,110.723,67.482,110.723,55.015Zm-87,0c0-10.3,8.149-19,17.8-19a17.44,17.44,0,0,1,7.31,1.631,1.969,1.969,0,0,0,1.8-.084,2,2,0,0,0,.987-1.517,17.706,17.706,0,0,1,35.027-1.594,1.905,1.905,0,0,0,1.995,1.606,1.574,1.574,0,0,0,.34-0.041c9.647,0,17.8,8.7,17.8,19s-8.149,19-17.8,19H41.519C31.872,74.015,23.723,65.314,23.723,55.015ZM37.974,84.6a1.961,1.961,0,0,0-2.8,0L25.3,94.59a2.015,2.015,0,0,0,0,2.828,1.961,1.961,0,0,0,2.8,0l9.875-9.988A2.016,2.016,0,0,0,37.974,84.6Zm15.818,0a1.961,1.961,0,0,0-2.8,0L41.121,94.59a2.015,2.015,0,0,0,0,2.828,1.96,1.96,0,0,0,2.8,0l9.875-9.988A2.016,2.016,0,0,0,53.792,84.6Zm15.818,0a1.961,1.961,0,0,0-2.8,0L56.939,94.59a2.015,2.015,0,0,0,0,2.828,1.96,1.96,0,0,0,2.8,0L69.61,87.43A2.016,2.016,0,0,0,69.61,84.6Zm13.022,0L72.757,94.59a2.015,2.015,0,0,0,0,2.828,1.96,1.96,0,0,0,2.8,0l9.875-9.988a2.016,2.016,0,0,0,0-2.828A1.961,1.961,0,0,0,82.632,84.6Zm-15.818,16-3.955,4a2.016,2.016,0,0,0,0,2.828,1.96,1.96,0,0,0,2.8,0l3.955-4a2.015,2.015,0,0,0,0-2.828A1.961,1.961,0,0,0,66.814,100.6ZM51,100.6l-3.955,4a2.016,2.016,0,0,0,0,2.828,1.96,1.96,0,0,0,2.8,0l3.954-4a2.016,2.016,0,0,0,0-2.828A1.961,1.961,0,0,0,51,100.6Zm-15.818,0-3.954,4a2.015,2.015,0,0,0,0,2.828,1.96,1.96,0,0,0,2.8,0l3.955-4a2.016,2.016,0,0,0,0-2.828A1.961,1.961,0,0,0,35.177,100.6Zm-15.818,0-3.955,4a2.015,2.015,0,0,0,0,2.828,1.961,1.961,0,0,0,2.8,0l3.954-4a2.015,2.015,0,0,0,0-2.828A1.961,1.961,0,0,0,19.359,100.6Z"/>
</svg>
