<svg xmlns="http://www.w3.org/2000/svg" xmlns:xlink="http://www.w3.org/1999/xlink" width="125" height="125" viewBox="0 0 125 125">
  <defs>
    <style>
      .cls-1 {
        fill: #333;
        fill-rule: evenodd;
        filter: url(#filter);
      }
    </style>
    <filter id="filter" x="16.031" y="12.938" width="92" height="99.938" filterUnits="userSpaceOnUse">
      <feFlood result="flood" flood-color="#fff"/>
      <feComposite result="composite" operator="in" in2="SourceGraphic"/>
      <feBlend result="blend" in2="SourceGraphic"/>
    </filter>
  </defs>
  <path id="_24" data-name="24" class="cls-1" d="M46.715,84.13a2,2,0,1,0-4,0V100.3a2,2,0,1,0,4,0V84.13Zm24,0a2,2,0,1,0-4,0V100.3a2,2,0,1,0,4,0V84.13Zm-12,0a2,2,0,1,0-4,0v8.087a2,2,0,1,0,4,0V84.13Zm24,0a2,2,0,1,0-4,0v8.087a2,2,0,1,0,4,0V84.13Zm25.332-31.548c0-12.3-9.422-22.751-20.824-23.427a21.88,21.88,0,0,0-42.516,1.037,21.279,21.279,0,0,0-6.66-1.072c-11.926,0-22,10.745-22,23.463s10.074,23.462,22,23.462h48C97.973,76.044,108.047,65.3,108.047,52.582Zm-88,0c0-10.345,8.41-19.419,18-19.419a17.683,17.683,0,0,1,7.4,1.648,1.967,1.967,0,0,0,1.812-.084,2.024,2.024,0,0,0,1-1.534,17.911,17.911,0,0,1,35.43-1.613A2.026,2.026,0,0,0,85.707,33.2a1.563,1.563,0,0,0,.34-0.042c9.59,0,18,9.074,18,19.419S95.637,72,86.047,72h-48C28.457,72,20.047,62.927,20.047,52.582ZM56.434,100.73a2.022,2.022,0,1,0,2,2.022A2.011,2.011,0,0,0,56.434,100.73Zm24,0a2.022,2.022,0,1,0,2,2.022A2.011,2.011,0,0,0,80.434,100.73Zm-12,8.087a2.022,2.022,0,1,0,2,2.021A2.011,2.011,0,0,0,68.434,108.817Zm-24,0a2.022,2.022,0,1,0,2,2.021A2.011,2.011,0,0,0,44.434,108.817Z"/>
</svg>
