<svg xmlns="http://www.w3.org/2000/svg" xmlns:xlink="http://www.w3.org/1999/xlink" width="125" height="125" viewBox="0 0 125 125">
  <defs>
    <style>
      .cls-1 {
        fill: #333;
        fill-rule: evenodd;
        filter: url(#filter);
      }
    </style>
    <filter id="filter" x="16.031" y="12.75" width="92" height="99.969" filterUnits="userSpaceOnUse">
      <feFlood result="flood" flood-color="#fff"/>
      <feComposite result="composite" operator="in" in2="SourceGraphic"/>
      <feBlend result="blend" in2="SourceGraphic"/>
    </filter>
  </defs>
  <path id="_21" data-name="21" class="cls-1" d="M87.221,28.886a21.907,21.907,0,0,0-42.514,1.031,21.4,21.4,0,0,0-6.66-1.066c-11.926,0-22,10.667-22,23.294s10.074,23.292,22,23.292h48c11.926,0,22-10.667,22-23.292C108.047,39.934,98.625,29.557,87.221,28.886ZM86.047,71.414h-48c-9.588,0-18-9.006-18-19.27s8.412-19.272,18-19.272a17.732,17.732,0,0,1,7.394,1.64,2,2,0,0,0,2.814-1.61,17.926,17.926,0,0,1,35.432-1.6,2,2,0,0,0,1.961,1.614,0.921,0.921,0,0,0,.4-0.042c9.588,0,18,9.006,18,19.272S95.635,71.414,86.047,71.414ZM43.99,112.154a1.993,1.993,0,0,0,2.828-.046L59.484,98.953a2.012,2.012,0,0,0-1.438-3.409H53.23l8.016-7.487a2.019,2.019,0,0,0,.1-2.842,1.993,1.993,0,0,0-2.827-.1L46.777,96.082a2.012,2.012,0,0,0,1.361,3.483h5.188l-9.383,9.746A2.018,2.018,0,0,0,43.99,112.154ZM72.472,96.618l9.988-10.043a2.018,2.018,0,0,0,0-2.843,1.992,1.992,0,0,0-2.828,0L69.644,93.774a2.018,2.018,0,0,0,0,2.844A1.992,1.992,0,0,0,72.472,96.618Zm-40,0,9.988-10.043a2.018,2.018,0,0,0,0-2.843,1.992,1.992,0,0,0-2.828,0L29.644,93.774a2.018,2.018,0,0,0,0,2.844A1.992,1.992,0,0,0,32.472,96.618Z"/>
</svg>
